# xmcd
#
# Track frame offsets:
#	150
#	20742
#	34614
#	56032
#	76931
#	90088
#	108323
#	124383
#	142798
#	162406
#	182283
#	201076
#
# Disc length: 2953 seconds
#
# Revision: 0
# Processed by: cddbd v1.4PL0 Copyright (c) Steve Scherf et al.
# Submitted via: EZCDDA 4.3.3.2
#
DISCID=900b870c
DTITLE=Garth Brooks - Scarecrow
DYEAR=1900
DGENRE=
TTITLE0=Why Ain't I Running
TTITLE1=Beer Run (with George Jones)
TTITLE2=Wrapped Up In You
TTITLE3=The Storm
TTITLE4=Thicker Than Blood
TTITLE5=Big Money
TTITLE6=Squeeze Me In (With Trisha Yearwood)
TTITLE7=Mr. Midnight
TTITLE8=Pushing Up Daisies
TTITLE9=Rodeo or Mexico
TTITLE10=Don't Cross the River
TTITLE11=When You Come Back To Me Again
EXTD=
EXTT0=
EXTT1=
EXTT2=
EXTT3=
EXTT4=
EXTT5=
EXTT6=
EXTT7=
EXTT8=
EXTT9=
EXTT10=
EXTT11=
PLAYORDER=
